<svg xmlns="http://www.w3.org/2000/svg" xmlns:xlink="http://www.w3.org/1999/xlink" width="453" height="163" viewBox="0 0 453 163">
  <defs>
    <style>
      .cls-1 {
        clip-path: url(#clip-Logo_2.0);
      }

      .cls-2 {
        fill: url(#linear-gradient);
      }

      .cls-3, .cls-4 {
        fill: #fff;
        font-size: 125px;
        font-family: AndaleMono, Andale Mono;
      }

      .cls-3 {
        letter-spacing: -0.22em;
      }

      .cls-5 {
        filter: url(#S-4);
      }

      .cls-6 {
        filter: url(#S-3);
      }

      .cls-7 {
        filter: url(#S-2);
      }

      .cls-8 {
        filter: url(#S);
      }

      .cls-9 {
        filter: url(#_2);
      }

      .cls-10 {
        filter: url(#_);
      }
    </style>
    <linearGradient id="linear-gradient" x1="1.14" y1="-0.128" x2="-0.132" y2="1.155" gradientUnits="objectBoundingBox">
      <stop offset="0" stop-color="#ee1999"/>
      <stop offset="1" stop-color="#fea600"/>
    </linearGradient>
    <filter id="_" x="265" y="5" width="94" height="158" filterUnits="userSpaceOnUse">
      <feOffset dy="3" input="SourceAlpha"/>
      <feGaussianBlur stdDeviation="3" result="blur"/>
      <feFlood flood-opacity="0.161"/>
      <feComposite operator="in" in2="blur"/>
      <feComposite in="SourceGraphic"/>
    </filter>
    <filter id="_2" x="227" y="5" width="94" height="158" filterUnits="userSpaceOnUse">
      <feOffset dy="3" input="SourceAlpha"/>
      <feGaussianBlur stdDeviation="3" result="blur-2"/>
      <feFlood flood-opacity="0.161"/>
      <feComposite operator="in" in2="blur-2"/>
      <feComposite in="SourceGraphic"/>
    </filter>
    <filter id="S" x="161" y="5" width="94" height="158" filterUnits="userSpaceOnUse">
      <feOffset dy="3" input="SourceAlpha"/>
      <feGaussianBlur stdDeviation="3" result="blur-3"/>
      <feFlood flood-opacity="0.161"/>
      <feComposite operator="in" in2="blur-3"/>
      <feComposite in="SourceGraphic"/>
    </filter>
    <filter id="S-2" x="161" y="4" width="94" height="158" filterUnits="userSpaceOnUse">
      <feOffset dy="3" input="SourceAlpha"/>
      <feGaussianBlur stdDeviation="3" result="blur-4"/>
      <feFlood flood-opacity="0.161"/>
      <feComposite operator="in" in2="blur-4"/>
      <feComposite in="SourceGraphic"/>
    </filter>
    <filter id="S-3" x="95" y="5" width="94" height="158" filterUnits="userSpaceOnUse">
      <feOffset dy="3" input="SourceAlpha"/>
      <feGaussianBlur stdDeviation="3" result="blur-5"/>
      <feFlood flood-opacity="0.161"/>
      <feComposite operator="in" in2="blur-5"/>
      <feComposite in="SourceGraphic"/>
    </filter>
    <filter id="S-4" x="95" y="4" width="94" height="158" filterUnits="userSpaceOnUse">
      <feOffset dy="3" input="SourceAlpha"/>
      <feGaussianBlur stdDeviation="3" result="blur-6"/>
      <feFlood flood-opacity="0.161"/>
      <feComposite operator="in" in2="blur-6"/>
      <feComposite in="SourceGraphic"/>
    </filter>
    <clipPath id="clip-Logo_2.0">
      <rect width="453" height="163"/>
    </clipPath>
  </defs>
  <g id="Logo_2.0" data-name="Logo 2.0" class="cls-1">
    <path id="Subtraction_2" data-name="Subtraction 2" class="cls-2" d="M274.842-1205.8H-58L-2.526-1341H330.316l-55.474,135.2ZM-.241-1339.187l-54.623,131.44H272.873l54.622-131.44ZM264.81-1217.578H-39.109L7.113-1328.8h303.92l-46.222,111.226Z" transform="translate(90.314 1353.801)"/>
    <g id="Group_9" data-name="Group 9" transform="translate(-113 -97)">
      <g id="Group_7" data-name="Group 7" transform="translate(31)">
        <g class="cls-10" transform="matrix(1, 0, 0, 1, 82, 97)">
          <text id="_3" data-name="/" class="cls-3" transform="translate(274 124)"><tspan x="0" y="0">/</tspan></text>
        </g>
        <g class="cls-9" transform="matrix(1, 0, 0, 1, 82, 97)">
          <text id="_4" data-name="\" class="cls-3" transform="translate(236 124)"><tspan x="0" y="0">\</tspan></text>
        </g>
      </g>
      <g id="Group_6" data-name="Group 6" transform="translate(13 -1)">
        <g class="cls-8" transform="matrix(1, 0, 0, 1, 100, 98)">
          <text id="S-5" data-name="S" class="cls-4" transform="translate(170 124)"><tspan x="0" y="0">S</tspan></text>
        </g>
        <g class="cls-7" transform="matrix(1, 0, 0, 1, 100, 98)">
          <text id="S-6" data-name="S" class="cls-4" transform="translate(170 123)"><tspan x="0" y="0">S</tspan></text>
        </g>
      </g>
      <g id="Group_8" data-name="Group 8" transform="translate(-53 -1)">
        <g class="cls-6" transform="matrix(1, 0, 0, 1, 166, 98)">
          <text id="S-7" data-name="S" class="cls-4" transform="translate(104 124)"><tspan x="0" y="0">S</tspan></text>
        </g>
        <g class="cls-5" transform="matrix(1, 0, 0, 1, 166, 98)">
          <text id="S-8" data-name="S" class="cls-4" transform="translate(104 123)"><tspan x="0" y="0">S</tspan></text>
        </g>
      </g>
    </g>
  </g>
</svg>
